<svg width="248.68935546875px" height="66.08000183105469px" xmlns="http://www.w3.org/2000/svg" viewBox="125.655322265625 41.959999084472656 248.68935546875 66.08000183105469" style="background: rgba(0, 0, 0, 0);" preserveAspectRatio="xMidYMid"><filter id="editing-goldstamp"><feFlood flood-color="#797549" result="flood"></feFlood><feMorphology operator="dilate" radius="2" in="SourceGraphic" result="outline"></feMorphology><feComposite operator="in" in="flood" in2="outline" result="outline2"></feComposite><feGaussianBlur stdDeviation="4" in="SourceAlpha" result="blur"></feGaussianBlur><feSpecularLighting surfaceScale="2" specularConstant="0.7" specularExponent="10" lighting-color="#white" in="blur" result="specular"><fePointLight x="200" y="-1000" z="300"></fePointLight></feSpecularLighting><feComposite operator="in" in="specular" in2="SourceGraphic" result="specular2"></feComposite><feComposite in="SourceGraphic" in2="specular2" operator="arithmetic" k1="3" k2="2" k3="1" k4="0" result="specular3"></feComposite><feMerge><feMergeNode in="outline2"></feMergeNode><feMergeNode in="specular3"></feMergeNode></feMerge></filter><g filter="url(#editing-goldstamp)"><g transform="translate(166.23640257120132, 85.87500381469727)"><path d="M6.63 0.07L6.63 0.07L6.63 0.07Q5.08-0.20 4.26-0.32L4.26-0.32L4.26-0.32Q3.45-0.43 2.60-0.43L2.60-0.43L2.60-0.43Q1.74-0.43 1.31 0L1.31 0L1.31 0Q0.64-0.49 0.29-2.06L0.29-2.06L0.29-2.06Q0.17-2.49 0.17-3.22L0.17-3.22L0.17-3.22Q0.17-4.79 1.97-6.32L1.97-6.32L11.02-13.75L11.02-13.75Q7.28-14.36 5.77-14.36L5.77-14.36L5.77-14.36Q4.26-14.36 2.87-13.69L2.87-13.69L2.87-13.69Q2.09-14.96 2.09-16.44L2.09-16.44L2.09-16.44Q2.09-17.92 3.18-18.68L3.18-18.68L3.18-18.68Q4.26-19.43 6.09-19.43L6.09-19.43L6.09-19.43Q6.90-19.43 7.77-19.31L7.77-19.31L7.77-19.31Q8.64-19.20 9.51-19.08L9.51-19.08L11.22-18.82L11.22-18.82Q12.06-18.71 13.15-18.71L13.15-18.71L13.15-18.71Q14.24-18.71 15.46-19.00L15.46-19.00L15.46-19.00Q16.62-17.98 16.62-16.30L16.62-16.30L16.62-16.30Q16.62-14.27 15.23-13.17L15.23-13.17L5.37-5.28L5.37-5.28Q7.48-4.70 10.99-4.70L10.99-4.70L10.99-4.70Q12.73-4.70 13.83-5.57L13.83-5.57L13.83-5.57Q14.33-4.93 14.46-4.39L14.46-4.39L14.46-4.39Q14.59-3.86 14.59-3.09L14.59-3.09L14.59-3.09Q14.59-2.32 14.33-1.70L14.33-1.70L14.33-1.70Q14.07-1.07 13.51-0.61L13.51-0.61L13.51-0.61Q12.41 0.35 9.98 0.35L9.98 0.35L9.98 0.35Q8.18 0.35 6.63 0.07ZM18.49-0.87L18.49-0.87L18.49-0.87Q17.81-1.62 17.50-2.81L17.50-2.81L17.50-2.81Q17.20-4.00 17.20-5.95L17.20-5.95L17.20-5.95Q17.20-7.89 17.86-9.66L17.86-9.66L17.86-9.66Q18.53-11.43 19.75-12.70L19.75-12.70L19.75-12.70Q22.24-15.37 26.36-15.37L26.36-15.37L26.36-15.37Q27.84-15.37 28.91-14.88L28.91-14.88L33.87-15.37L31.73-4.06L31.73-4.06Q31.64-3.71 31.64-3.07L31.64-3.07L31.64-3.07Q31.64-2.44 32.03-2.03L32.03-2.03L32.03-2.03Q32.42-1.62 33.00-1.57L33.00-1.57L33.00-1.57Q32.71-0.58 31.65 0L31.65 0L31.65 0Q30.59 0.58 29.41 0.58L29.41 0.58L29.41 0.58Q28.22 0.58 27.42 0.13L27.42 0.13L27.42 0.13Q26.62-0.32 26.39-1.07L26.39-1.07L26.39-1.07Q25.93-0.35 24.94 0.12L24.94 0.12L24.94 0.12Q23.95 0.58 22.63 0.58L22.63 0.58L22.63 0.58Q21.32 0.58 20.24 0.23L20.24 0.23L20.24 0.23Q19.17-0.12 18.49-0.87ZM24.61-12.64L24.61-12.64L24.61-12.64Q24.27-12.12 23.98-11.24L23.98-11.24L23.98-11.24Q23.69-10.35 23.21-7.99L23.21-7.99L23.21-7.99Q22.74-5.63 22.74-3.94L22.74-3.94L22.74-3.94Q22.74-2.26 23.00-1.77L23.00-1.77L23.00-1.77Q23.26-1.28 23.72-1.28L23.72-1.28L23.72-1.28Q24.65-1.28 25.33-2.16L25.33-2.16L25.33-2.16Q26.01-3.05 26.27-4.61L26.27-4.61L27.81-13.11L27.81-13.11Q27.20-13.63 26.49-13.63L26.49-13.63L26.49-13.63Q25.78-13.63 25.36-13.40L25.36-13.40L25.36-13.40Q24.94-13.17 24.61-12.64ZM42.40-1.59L42.40-1.59L42.40-1.59Q41.50 0.58 38.63 0.58L38.63 0.58L38.63 0.58Q37.15 0.58 36.22-0.43L36.22-0.43L36.22-0.43Q35.44-1.33 35.44-2.23L35.44-2.23L35.44-2.23Q35.44-4.58 36.51-9.16L36.51-9.16L37.58-14.79L43.47-15.37L41.70-6.21L41.70-6.21Q41.21-4.06 41.21-3.31L41.21-3.31L41.21-3.31Q41.21-1.65 42.40-1.59ZM38.11-18.82L38.11-18.82L38.11-18.82Q38.11-19.95 39.05-20.56L39.05-20.56L39.05-20.56Q39.99-21.17 41.35-21.17L41.35-21.17L41.35-21.17Q42.72-21.17 43.54-20.56L43.54-20.56L43.54-20.56Q44.37-19.95 44.37-18.82L44.37-18.82L44.37-18.82Q44.37-17.69 43.46-17.11L43.46-17.11L43.46-17.11Q42.54-16.53 41.18-16.53L41.18-16.53L41.18-16.53Q39.82-16.53 38.96-17.11L38.96-17.11L38.96-17.11Q38.11-17.69 38.11-18.82ZM57.13 0.58L57.13 0.58L57.13 0.58Q53.62 0.58 53.62-2.15L53.62-2.15L53.62-2.15Q53.65-2.90 53.88-4.18L53.88-4.18L54.40-6.84L54.40-6.84Q55.19-10.61 55.19-11.46L55.19-11.46L55.19-11.46Q55.19-13.14 54.20-13.14L54.20-13.14L54.20-13.14Q52.55-13.14 51.68-8.82L51.68-8.82L49.97 0L44.14 0.58L47.15-14.82L51.91-15.37L51.45-12.53L51.45-12.53Q52.81-15.37 56.99-15.37L56.99-15.37L56.99-15.37Q59.02-15.37 59.87-14.51L59.87-14.51L59.87-14.51Q60.73-13.66 60.73-11.75L60.73-11.75L60.73-11.75Q60.73-9.95 59.80-5.74L59.80-5.74L59.80-5.74Q59.36-3.86 59.36-3.15L59.36-3.15L59.36-3.15Q59.36-2.44 59.75-2.03L59.75-2.03L59.75-2.03Q60.15-1.62 60.73-1.57L60.73-1.57L60.73-1.57Q60.44-0.58 59.44 0L59.44 0L59.44 0Q58.44 0.58 57.13 0.58ZM71.34-14.12L71.34-14.12L71.34-14.12Q70.35-14.88 70.35-16.49L70.35-16.49L70.35-16.49Q70.35-18.10 71.41-18.94L71.41-18.94L71.41-18.94Q72.47-19.78 74.30-19.78L74.30-19.78L74.30-19.78Q75.46-19.78 78.21-19.37L78.21-19.37L80.19-19.08L80.19-19.08Q81.17-18.97 82.20-18.97L82.20-18.97L82.20-18.97Q83.23-18.97 83.93-19.40L83.93-19.40L83.93-19.40Q84.97-18.47 84.97-17.14L84.97-17.14L84.97-17.14Q84.97-15.81 83.78-14.85L83.78-14.85L83.78-14.85Q82.56-13.83 81.00-13.83L81.00-13.83L81.00-13.83Q80.24-13.83 79.03-14.04L79.03-14.04L79.03-14.04Q77.60-9.57 77.60-6.47L77.60-6.47L77.60-6.47Q77.60-3.36 79.17-1.74L79.17-1.74L79.17-1.74Q78.45-0.43 77.37 0.07L77.37 0.07L77.37 0.07Q76.30 0.58 74.69 0.58L74.69 0.58L74.69 0.58Q73.08 0.58 72.08-0.30L72.08-0.30L72.08-0.30Q71.08-1.19 71.08-3.02L71.08-3.02L71.08-3.02Q71.08-5.13 72.24-8.61L72.24-8.61L72.24-8.61Q73.40-12.06 75.14-14.70L75.14-14.70L75.14-14.70Q74.30-14.79 73.43-14.79L73.43-14.79L73.43-14.79Q71.63-14.79 71.34-14.12ZM98.63-3.22L98.63-3.22L98.63-3.22Q98.63-1.94 99.93-1.57L99.93-1.57L99.93-1.57Q99.62-0.49 98.37 0.09L98.37 0.09L98.37 0.09Q97.32 0.58 96.18 0.58L96.18 0.58L96.18 0.58Q95.03 0.58 94.44 0.28L94.44 0.28L94.44 0.28Q93.84-0.03 93.53-0.52L93.53-0.52L93.53-0.52Q93.00-1.28 93.00-2.70L93.00-2.70L93.00-2.70Q93.00-3.54 93.47-5.86L93.47-5.86L93.87-8.06L93.87-8.06Q94.37-10.59 94.37-11.51L94.37-11.51L94.37-11.51Q94.37-13.14 93.47-13.14L93.47-13.14L93.47-13.14Q92.34-13.14 91.61-11.48L91.61-11.48L91.61-11.48Q91.32-10.85 91.12-9.89L91.12-9.89L89.15 0L83.32 0.58L87.41-20.30L93.24-20.88L93.00-19.72L93.00-19.72Q92.19-15.25 91.50-13.75L91.50-13.75L91.50-13.75Q93.12-15.37 96.11-15.37L96.11-15.37L96.11-15.37Q99.27-15.37 99.85-13.28L99.85-13.28L99.85-13.28Q100.05-12.62 100.05-12.04L100.05-12.04L100.05-12.04Q100.05-11.46 100.01-11.01L100.01-11.01L100.01-11.01Q99.96-10.56 99.82-9.74L99.82-9.74L99.44-7.66L98.77-4.38L98.77-4.38Q98.63-3.71 98.63-3.22ZM103.54-0.87L103.54-0.87L103.54-0.87Q102.86-1.62 102.56-2.81L102.56-2.81L102.56-2.81Q102.25-4.00 102.25-5.95L102.25-5.95L102.25-5.95Q102.25-7.89 102.92-9.66L102.92-9.66L102.92-9.66Q103.59-11.43 104.81-12.70L104.81-12.70L104.81-12.70Q107.30-15.37 111.42-15.37L111.42-15.37L111.42-15.37Q112.90-15.37 113.97-14.88L113.97-14.88L118.93-15.37L116.78-4.06L116.78-4.06Q116.70-3.71 116.70-3.07L116.70-3.07L116.70-3.07Q116.70-2.44 117.09-2.03L117.09-2.03L117.09-2.03Q117.48-1.62 118.06-1.57L118.06-1.57L118.06-1.57Q117.77-0.58 116.71 0L116.71 0L116.71 0Q115.65 0.58 114.46 0.58L114.46 0.58L114.46 0.58Q113.27 0.58 112.48 0.13L112.48 0.13L112.48 0.13Q111.68-0.32 111.45-1.07L111.45-1.07L111.45-1.07Q110.98-0.35 110.00 0.12L110.00 0.12L110.00 0.12Q109.01 0.58 107.69 0.58L107.69 0.58L107.69 0.58Q106.37 0.58 105.30 0.23L105.30 0.23L105.30 0.23Q104.23-0.12 103.54-0.87ZM109.66-12.64L109.66-12.64L109.66-12.64Q109.33-12.12 109.04-11.24L109.04-11.24L109.04-11.24Q108.75-10.35 108.27-7.99L108.27-7.99L108.27-7.99Q107.79-5.63 107.79-3.94L107.79-3.94L107.79-3.94Q107.79-2.26 108.05-1.77L108.05-1.77L108.05-1.77Q108.32-1.28 108.78-1.28L108.78-1.28L108.78-1.28Q109.71-1.28 110.39-2.16L110.39-2.16L110.39-2.16Q111.07-3.05 111.33-4.61L111.33-4.61L112.87-13.11L112.87-13.11Q112.26-13.63 111.55-13.63L111.55-13.63L111.55-13.63Q110.84-13.63 110.42-13.40L110.42-13.40L110.42-13.40Q110.00-13.17 109.66-12.64ZM131.02-14.30L131.02-14.30L131.02-14.30Q131.98-15.37 133.63-15.37L133.63-15.37L133.63-15.37Q134.65-15.37 135.43-14.82L135.43-14.82L135.43-14.82Q136.21-14.27 136.21-13.24L136.21-13.24L136.21-13.24Q136.21-12.21 135.89-11.11L135.89-11.11L135.89-11.11Q135.58-10.01 135.08-8.87L135.08-8.87L135.08-8.87Q134.10-6.67 132.73-4.84L132.73-4.84L132.73-4.84Q130.82-2.20 128.98-0.81L128.98-0.81L128.98-0.81Q127.14 0.58 125.14 0.58L125.14 0.58L125.14 0.58Q123.51 0.58 122.53 0.20L122.53 0.20L122.53 0.20Q122.35-5.89 122.13-8.06L122.13-8.06L122.13-8.06Q121.92-10.24 121.74-11.43L121.74-11.43L121.74-11.43Q121.45-13.75 120.58-14.30L120.58-14.30L120.58-14.30Q121.25-14.88 121.90-15.12L121.90-15.12L121.90-15.12Q122.55-15.37 123.90-15.37L123.90-15.37L123.90-15.37Q125.25-15.37 126.21-14.31L126.21-14.31L126.21-14.31Q127.17-13.25 127.35-11.38L127.35-11.38L127.35-11.38Q127.54-9.51 127.54-7.25L127.54-7.25L127.54-7.25Q127.54-4.99 127.37-2.26L127.37-2.26L127.37-2.26Q128.27-2.90 129.22-4.84L129.22-4.84L129.22-4.84Q130.53-7.54 130.99-10.79L130.99-10.79L130.99-10.79Q131.14-11.77 131.14-12.82L131.14-12.82L131.14-12.82Q131.14-13.86 131.02-14.30ZM148.74-4.90L148.74-4.90L148.74-4.90Q149.47-4.41 149.47-3.32L149.47-3.32L149.47-3.32Q149.47-2.23 148.92-1.54L148.92-1.54L148.92-1.54Q148.36-0.84 147.47-0.38L147.47-0.38L147.47-0.38Q145.61 0.58 143.61 0.58L143.61 0.58L143.61 0.58Q141.61 0.58 140.43 0.15L140.43 0.15L140.43 0.15Q139.26-0.29 138.48-1.10L138.48-1.10L138.48-1.10Q136.94-2.64 136.94-5.45L136.94-5.45L136.94-5.45Q136.94-9.83 139.32-12.50L139.32-12.50L139.32-12.50Q141.87-15.37 146.31-15.37L146.31-15.37L146.31-15.37Q149.06-15.37 150.42-14.21L150.42-14.21L150.42-14.21Q151.44-13.34 151.44-11.92L151.44-11.92L151.44-11.92Q151.44-6.82 142.62-6.82L142.62-6.82L142.62-6.82Q142.51-6.06 142.51-5.42L142.51-5.42L142.51-5.42Q142.51-4.09 143.10-3.58L143.10-3.58L143.10-3.58Q143.70-3.07 144.80-3.07L144.80-3.07L144.80-3.07Q145.90-3.07 147.07-3.58L147.07-3.58L147.07-3.58Q148.25-4.09 148.74-4.90ZM142.83-8.06L142.83-8.06L142.83-8.06Q144.88-8.06 146.07-9.34L146.07-9.34L146.07-9.34Q147.26-10.56 147.26-12.50L147.26-12.50L147.26-12.50Q147.26-13.17 147.02-13.53L147.02-13.53L147.02-13.53Q146.77-13.89 146.28-13.89L146.28-13.89L146.28-13.89Q145.78-13.89 145.36-13.70L145.36-13.70L145.36-13.70Q144.94-13.51 144.51-12.88L144.51-12.88L144.51-12.88Q143.43-11.43 142.83-8.06ZM161.50-8.15L161.50-8.15L161.50-8.15Q162.55-10.01 162.55-11.89L162.55-11.89L162.55-11.89Q162.55-13.14 161.65-13.14L161.65-13.14L161.65-13.14Q160.95-13.14 160.23-11.95L160.23-11.95L160.23-11.95Q159.47-10.76 159.24-9.22L159.24-9.22L157.73 0L151.73 0.58L154.69-14.79L159.47-15.37L158.95-12.44L158.95-12.44Q160.37-15.37 163.56-15.37L163.56-15.37L163.56-15.37Q165.24-15.37 166.16-14.50L166.16-14.50L166.16-14.50Q167.07-13.63 167.07-11.85L167.07-11.85L167.07-11.85Q167.07-10.06 165.89-8.93L165.89-8.93L165.89-8.93Q164.72-7.80 162.72-7.80L162.72-7.80L162.72-7.80Q161.85-7.80 161.50-8.15Z" fill="#999569"></path></g></g><style>text {
  font-size: 64px;
  font-family: Arial Black;
  dominant-baseline: central;
  text-anchor: middle;
}</style></svg>